<svg width="24" height="24" viewBox="0 0 24 24" fill="none" xmlns="http://www.w3.org/2000/svg">
<path d="M11.9399 1.43994C6.1415 1.43994 1.43994 6.26338 1.43994 12.2071C1.43994 16.9649 4.44932 20.9962 8.62119 22.4212C8.67971 22.4339 8.73944 22.4402 8.79932 22.4399C9.18838 22.4399 9.33838 22.154 9.33838 21.9056C9.33838 21.6478 9.329 20.9728 9.32432 20.0728C8.97699 20.1542 8.62167 20.1966 8.26494 20.1993C6.24463 20.1993 5.78525 18.629 5.78525 18.629C5.30713 17.3868 4.61807 17.054 4.61807 17.054C3.704 16.4118 4.61338 16.3931 4.68369 16.3931H4.68838C5.74307 16.4868 6.29619 17.5087 6.29619 17.5087C6.82119 18.4274 7.52432 18.6853 8.15244 18.6853C8.56777 18.6769 8.97668 18.5811 9.35244 18.404C9.44619 17.7103 9.71807 17.2368 10.0181 16.9649C7.68838 16.6931 5.23682 15.7696 5.23682 11.6446C5.23682 10.4681 5.64463 9.50713 6.31494 8.75713C6.20713 8.48525 5.84619 7.38838 6.41807 5.90713C6.49478 5.88877 6.57362 5.88089 6.65244 5.88369C7.03213 5.88369 7.88994 6.029 9.30557 7.01338C11.0257 6.53212 12.8448 6.53212 14.5649 7.01338C15.9806 6.029 16.8384 5.88369 17.2181 5.88369C17.2969 5.88089 17.3757 5.88877 17.4524 5.90713C18.0243 7.38838 17.6634 8.48525 17.5556 8.75713C18.2259 9.51182 18.6337 10.4728 18.6337 11.6446C18.6337 15.779 16.1774 16.6884 13.8384 16.9556C14.2134 17.2884 14.5509 17.9446 14.5509 18.9478C14.5509 20.3868 14.5368 21.5493 14.5368 21.9009C14.5368 22.154 14.6821 22.4399 15.0712 22.4399C15.1342 22.4402 15.197 22.4339 15.2587 22.4212C19.4353 20.9962 22.4399 16.9603 22.4399 12.2071C22.4399 6.26338 17.7384 1.43994 11.9399 1.43994Z" fill="white"/>
</svg>
