<svg width="32" height="32" viewBox="0 0 32 32" fill="none" xmlns="http://www.w3.org/2000/svg">
<path d="M15.9999 1.33327C12.1512 1.29416 8.44442 2.78475 5.69423 5.47744C2.94403 8.17013 1.37547 11.8446 1.33325 15.6933C1.34808 18.7348 2.32651 21.6934 4.128 24.1441C5.92949 26.5948 8.46135 28.4115 11.3599 29.3333C12.0933 29.4666 12.3599 29.0266 12.3599 28.6399V26.1999C8.27992 27.0666 7.41325 24.2799 7.41325 24.2799C7.14165 23.4051 6.56423 22.6573 5.78659 22.1733C4.45325 21.2933 5.89325 21.3066 5.89325 21.3066C6.35412 21.3682 6.79506 21.5334 7.183 21.7897C7.57094 22.046 7.89581 22.3868 8.13325 22.7866C8.54703 23.5041 9.22596 24.0305 10.0239 24.2524C10.8219 24.4743 11.6751 24.3741 12.3999 23.9733C12.4745 23.2431 12.8051 22.5629 13.3333 22.0533C10.0799 21.6933 6.66659 20.4666 6.66659 14.9599C6.63749 13.5235 7.16824 12.1321 8.14659 11.0799C7.70102 9.8467 7.75363 8.48835 8.29325 7.29327C8.29325 7.29327 9.53325 6.9066 12.2933 8.75994C14.6958 8.11972 17.2241 8.11972 19.6266 8.75994C22.4266 6.9066 23.6266 7.29327 23.6266 7.29327C24.1662 8.48835 24.2188 9.8467 23.7733 11.0799C24.7743 12.1128 25.3339 13.4949 25.3333 14.9333C25.3333 20.4533 21.8933 21.6666 18.6666 22.0266C19.0199 22.3696 19.2928 22.7867 19.4657 23.2478C19.6386 23.7088 19.7072 24.2025 19.6666 24.6933V28.6266C19.6666 29.0933 19.9333 29.4666 20.6666 29.3199C23.5569 28.3925 26.0803 26.5754 27.8762 24.1281C29.6721 21.6809 30.6487 18.7287 30.6666 15.6933C30.6244 11.8446 29.0558 8.17013 26.3056 5.47744C23.5554 2.78475 19.8486 1.29416 15.9999 1.33327" fill="black"/>
</svg>
