<svg width="32" height="32" viewBox="0 0 32 32" fill="none" xmlns="http://www.w3.org/2000/svg">
<g clip-path="url(#clip0)">
<path d="M27.2653 27.266H22.5239V19.8406C22.5239 18.07 22.4923 15.7906 20.0579 15.7906C17.5884 15.7906 17.2105 17.7198 17.2105 19.7117V27.2655H12.4693V11.996H17.0209V14.0827H17.0846C17.5401 13.3038 18.1984 12.6631 18.9892 12.2287C19.7801 11.7944 20.674 11.5826 21.5756 11.6161C26.3813 11.6161 27.2673 14.7771 27.2673 18.8893L27.2653 27.266V27.266ZM7.11926 9.90883C5.59963 9.90908 4.36751 8.67733 4.36726 7.1577C4.36701 5.63808 5.59863 4.40595 7.11826 4.4057C8.63788 4.40533 9.87001 5.63708 9.87026 7.1567C9.87039 7.88646 9.58063 8.58638 9.06472 9.1025C8.54881 9.61862 7.84901 9.90866 7.11926 9.90883V9.90883ZM9.49001 27.2661H4.74363V11.996H9.48988V27.266L9.49001 27.2661ZM29.629 0.00232899H2.36113C1.07238 -0.012171 0.0155059 1.0202 -0.000244141 2.30895V29.6906C0.0150059 30.98 1.07176 32.0133 2.36101 31.9998H29.629C30.921 32.0158 31.9819 30.9825 31.9998 29.6906V2.30683C31.9814 1.01558 30.9204 -0.016671 29.629 0.000203987" fill="#0A66C2"/>
</g>
<defs>
<clipPath id="clip0">
<rect width="32.0001" height="32.0001" fill="white" transform="translate(-0.000244141)"/>
</clipPath>
</defs>
</svg>
