<svg width="32" height="32" viewBox="0 0 32 32" fill="none" xmlns="http://www.w3.org/2000/svg">
<path d="M32 6.0785C30.8225 6.60063 29.5572 6.9535 28.2292 7.11225C29.5849 6.29975 30.6258 5.01313 31.1159 3.48013C29.8272 4.24486 28.4173 4.78366 26.947 5.07325C25.7494 3.79738 24.0432 3 22.1549 3C18.5291 3 15.5895 5.9395 15.5895 9.565C15.5895 10.0796 15.6476 10.5806 15.7595 11.0613C10.3032 10.7874 5.46575 8.17375 2.22762 4.20175C1.66262 5.17138 1.33888 6.29925 1.33888 7.50225C1.33888 9.78 2.498 11.7894 4.2595 12.9668C3.21694 12.9341 2.19731 12.6525 1.28575 12.1455C1.28538 12.173 1.28537 12.2005 1.28537 12.2281C1.28537 15.409 3.54837 18.0625 6.55162 18.6656C5.58486 18.9286 4.57079 18.967 3.58687 18.7781C4.42225 21.3864 6.84688 23.2844 9.71963 23.3375C7.47275 25.0983 4.64188 26.1479 1.56613 26.1479C1.03613 26.1479 0.513625 26.1168 0 26.0561C2.90538 27.9189 6.35625 29.0058 10.0638 29.0058C22.1396 29.0058 28.743 19.0019 28.743 10.3264C28.743 10.0416 28.7368 9.7585 28.724 9.477C30.0093 8.54786 31.1186 7.39702 32 6.0785" fill="#55ACEE"/>
</svg>
